<svg width="250" height="250" viewBox="0 0 250 250" fill="none" xmlns="http://www.w3.org/2000/svg">
<path d="M50.585 172.145C50.585 172.145 70.79 197.73 105.32 198.77C139.85 199.81 170.73 178.27 196.205 161.51C221.68 144.75 230.04 116.67 217.32 93.5099C204.6 70.3499 181.52 78.2849 153.82 62.0099C126.12 45.7349 121.155 37.1999 89 38.6599C56.845 40.1199 30.27 74.4599 31.44 112.93C32.61 151.4 50.585 172.145 50.585 172.145Z" fill="#FF6B57"/>
<path opacity="0.7" d="M50.585 172.145C50.585 172.145 70.79 197.73 105.32 198.77C139.85 199.81 170.73 178.27 196.205 161.51C221.68 144.75 230.04 116.67 217.32 93.5099C204.6 70.3499 181.52 78.2849 153.82 62.0099C126.12 45.7349 121.155 37.1999 89 38.6599C56.845 40.1199 30.27 74.4599 31.44 112.93C32.61 151.4 50.585 172.145 50.585 172.145Z" fill="white"/>
<path d="M56.865 45.5401C56.835 45.5401 57.215 43.6751 57.25 43.5401C57.68 42.2051 59.3 39.8851 60.865 39.8901C61.1257 39.8975 61.3819 39.9597 61.6169 40.0728C61.8519 40.1859 62.0604 40.3472 62.2289 40.5463C62.3973 40.7454 62.5219 40.9778 62.5944 41.2283C62.667 41.4788 62.6859 41.7418 62.65 42.0001C62.535 43.1001 61.545 44.0401 60.65 44.5801C59.6 45.2351 56.865 45.5401 56.865 45.5401Z" fill="#FF6B57"/>
<path d="M53.8301 33.0001C55.3301 33.5301 56.0401 36.2601 55.9901 37.6601C55.9901 37.7801 55.7101 39.6601 55.6851 39.6601H55.6551C55.7701 40.0901 55.8951 40.5551 56.0201 41.0651C56.2401 42.0051 56.4801 43.0651 56.6651 44.2451C56.8796 45.5091 57.0198 46.7846 57.0851 48.0651C57.1648 49.4999 57.1163 50.9389 56.9401 52.3651C56.9378 52.3817 56.9378 52.3985 56.9401 52.4151C57.1351 52.0001 57.7151 50.8501 57.7651 50.7701C58.5351 49.6001 60.7051 47.7701 62.2201 48.2051C62.4688 48.2809 62.6988 48.4084 62.895 48.5791C63.0911 48.7499 63.2491 48.96 63.3586 49.1959C63.468 49.4318 63.5265 49.6882 63.5302 49.9482C63.5339 50.2082 63.4828 50.4661 63.3801 50.7051C62.9801 51.7351 61.7801 52.3801 60.7751 52.6651C59.6401 52.9901 57.1101 52.6101 56.9101 52.5751C56.6963 54.0226 56.3856 55.4541 55.9801 56.8601C55.7468 57.6801 55.4934 58.4984 55.2201 59.3151C55.3951 58.9601 55.5601 58.6451 55.5851 58.6051C56.3551 57.4301 58.5301 55.6051 60.0401 56.0401C60.2888 56.1159 60.5188 56.2434 60.715 56.4141C60.9111 56.5849 61.0691 56.795 61.1786 57.0309C61.288 57.2668 61.3465 57.5232 61.3502 57.7832C61.3539 58.0432 61.3028 58.3011 61.2001 58.5401C60.8001 59.5701 59.6001 60.2151 58.5951 60.5001C57.5901 60.7851 55.4101 60.5001 54.8401 60.4251L54.5251 61.3651C54.0251 62.8651 53.4801 64.3651 53.0251 65.8351C52.8601 66.3351 52.7151 66.8751 52.5701 67.3951C52.7301 67.0801 52.8651 66.8151 52.8901 66.7751C53.6551 65.6051 55.8301 63.7751 57.3401 64.2101C57.5884 64.2867 57.8178 64.4146 58.0137 64.5854C58.2095 64.7562 58.3674 64.9661 58.4772 65.2016C58.587 65.4371 58.6462 65.6931 58.651 65.9529C58.6558 66.2127 58.6061 66.4706 58.5051 66.7101C58.1051 67.7451 56.9001 68.3851 55.8951 68.6751C54.8901 68.9651 52.9251 68.7101 52.2451 68.6151C52.1101 69.1501 51.9801 69.6851 51.8751 70.2101C51.8101 70.5751 51.7251 70.9151 51.6801 71.2801L51.5301 72.3551C51.4601 73.0401 51.3801 73.7451 51.3301 74.4151C51.2901 74.8801 51.2601 75.3251 51.2301 75.7751C51.3901 75.2751 51.7301 74.2401 51.7301 74.1601C52.2838 73.06 53.1101 72.1202 54.1301 71.4301C54.1845 71.3026 54.2532 71.1818 54.3351 71.0701C54.4766 70.8516 54.6627 70.6655 54.8811 70.5239C55.0995 70.3822 55.3454 70.2883 55.6025 70.2482C55.8597 70.2081 56.1225 70.2227 56.3737 70.2911C56.6248 70.3595 56.8587 70.4801 57.0601 70.6451C58.2501 71.6701 57.9501 74.4801 57.4051 75.7701C57.3751 75.8451 56.9301 76.6301 56.6451 77.1251C56.8601 76.8601 57.0601 76.6001 57.2851 76.3351C57.7201 75.8001 58.1701 75.2801 58.6501 74.7201L59.3851 73.9251C59.6251 73.6551 59.9151 73.4251 60.1801 73.1301C60.8051 72.5251 61.4701 71.9401 62.1551 71.3651C61.6901 70.9851 60.0501 69.6051 59.5801 68.6651C59.1101 67.7251 58.7751 66.4101 59.2651 65.4151C59.3729 65.1778 59.5293 64.9658 59.7242 64.7928C59.9192 64.6199 60.1483 64.4898 60.3967 64.4111C60.6452 64.3324 60.9074 64.3067 61.1664 64.3358C61.4254 64.3649 61.6753 64.4482 61.9001 64.5801C63.2251 65.4151 63.3601 68.2401 63.0151 69.5801C63.0151 69.6651 62.6351 70.6101 62.4301 71.1251C62.8451 70.7851 63.2551 70.4451 63.6851 70.1251C64.9251 69.1701 66.2101 68.2351 67.4851 67.3001L68.6501 66.4401C68.4851 66.3051 66.5051 64.7051 65.9751 63.6501C65.5101 62.7151 65.1701 61.3951 65.6601 60.4051C65.7672 60.1672 65.9233 59.9547 66.1182 59.7813C66.3131 59.6079 66.5423 59.4775 66.791 59.3987C67.0397 59.3199 67.3021 59.2945 67.5613 59.324C67.8205 59.3535 68.0705 59.4374 68.2951 59.5701C69.6251 60.4001 69.7551 63.2251 69.4101 64.5701C69.3851 64.6701 68.8701 66.0301 68.7251 66.3701C69.5751 65.7351 70.4201 65.0951 71.2251 64.4251C72.3204 63.5322 73.3559 62.5685 74.3251 61.5401C74.2501 61.4751 72.1751 59.8151 71.6351 58.7401C71.1651 57.8051 70.8301 56.4801 71.3201 55.4901C71.4273 55.2529 71.5832 55.041 71.7777 54.8681C71.9722 54.6952 72.2009 54.5651 72.449 54.4864C72.697 54.4076 72.9589 54.3819 73.2175 54.411C73.4761 54.4401 73.7257 54.5232 73.9501 54.6551C75.2801 55.4901 75.4151 58.3151 75.0701 59.6551C75.0701 59.7451 74.6551 60.7801 74.4601 61.2701L74.5351 61.3201C75.4823 60.2571 76.3339 59.1127 77.0801 57.9001C77.5001 57.2351 77.8601 56.5801 78.2001 55.9351C77.7801 55.6651 75.8851 54.4101 75.2901 53.4951C74.6951 52.5801 74.2451 51.3401 74.6201 50.3001C74.7005 50.0522 74.8321 49.824 75.0066 49.6303C75.181 49.4367 75.3943 49.2821 75.6326 49.1764C75.8708 49.0707 76.1286 49.0164 76.3892 49.0171C76.6498 49.0177 76.9074 49.0732 77.1451 49.1801C78.5601 49.8651 79.0001 52.6801 78.8051 54.0451C78.8051 54.1201 78.6051 54.8751 78.4601 55.4201C78.6051 55.1251 78.7651 54.8251 78.9001 54.5401C79.4001 53.4751 79.8251 52.4651 80.1751 51.5401C80.3751 51.0401 80.5401 50.5651 80.6751 50.1251C80.4001 49.6251 79.3301 47.7051 79.2251 46.6251C79.1201 45.5451 79.2901 44.2351 80.1051 43.4851C80.2907 43.3024 80.5126 43.1609 80.7564 43.0697C81.0003 42.9785 81.2606 42.9397 81.5205 42.9557C81.7804 42.9717 82.0339 43.0423 82.2647 43.1628C82.4955 43.2833 82.6984 43.451 82.8601 43.6551C83.8001 44.9101 82.9051 47.5951 82.0951 48.7351C82.0251 48.8351 80.7501 50.2351 80.7351 50.2351V50.2051C80.5951 50.6301 80.4451 51.0851 80.2651 51.5751C79.9351 52.4851 79.5501 53.5051 79.0551 54.5751C78.5318 55.7459 77.9425 56.886 77.2901 57.9901C76.562 59.2284 75.7254 60.3997 74.7901 61.4901L74.7551 61.5301C75.1451 61.2901 76.2551 60.6501 76.3501 60.6101C77.6401 60.0601 80.4501 59.7501 81.4801 60.9301C81.6459 61.1309 81.7675 61.3644 81.8371 61.6153C81.9067 61.8662 81.9227 62.129 81.884 62.3865C81.8453 62.644 81.7529 62.8905 81.6126 63.1099C81.4724 63.3294 81.2875 63.5168 81.0701 63.6601C80.1651 64.3001 78.8101 64.1601 77.8101 63.8601C76.6851 63.5001 74.8101 61.7901 74.6401 61.6501C73.6635 62.7396 72.6144 63.7619 71.5001 64.7101C70.8551 65.2651 70.1851 65.8051 69.5001 66.3401C69.8451 66.1401 70.1551 65.9651 70.2001 65.9451C71.4851 65.3951 74.2951 65.0851 75.3251 66.2651C75.4916 66.4656 75.6139 66.699 75.6839 66.95C75.754 67.2011 75.7702 67.4641 75.7315 67.7219C75.6928 67.9796 75.6 68.2263 75.4593 68.4457C75.3186 68.6651 75.1332 68.8523 74.9151 68.9951C74.0151 69.6351 72.6551 69.4951 71.6601 69.1951C70.6651 68.8951 69.0001 67.4451 68.5701 67.0601C68.3051 67.2601 68.0701 67.4651 67.7851 67.6701C66.5301 68.6301 65.2851 69.5851 64.0601 70.5651C63.6351 70.9051 63.2301 71.2601 62.8201 71.6151L63.4301 71.2751C64.7151 70.7251 67.5251 70.4101 68.5551 71.5901C68.721 71.7913 68.8427 72.0252 68.9123 72.2765C68.9819 72.5278 68.9979 72.791 68.9593 73.0489C68.9206 73.3068 68.8282 73.5537 68.6879 73.7736C68.5476 73.9934 68.3627 74.1813 68.1451 74.3251C67.2451 74.9651 65.8851 74.8251 64.8901 74.5201C63.8951 74.2151 62.3901 72.9101 61.8901 72.4551C61.4851 72.8301 61.0751 73.2051 60.7001 73.5851C60.4451 73.8501 60.2001 74.0851 59.9501 74.3701L59.2301 75.1801C58.7951 75.7151 58.3401 76.2601 57.9251 76.7901C57.6351 77.1551 57.3651 77.5101 57.0951 77.8701C57.5101 77.5201 58.3501 76.8701 58.4251 76.8101C59.6101 76.0701 62.3451 75.3101 63.5401 76.3501C63.7338 76.524 63.8886 76.7368 63.9947 76.9746C64.1007 77.2123 64.1555 77.4697 64.1555 77.7301C64.1555 77.9904 64.1007 78.2478 63.9947 78.4856C63.8886 78.7233 63.7338 78.9361 63.5401 79.1101C62.7401 79.8801 61.3801 79.9601 60.3501 79.8001C59.2101 79.6201 57.1501 78.3001 56.8951 78.1101C56.4451 78.7051 56.0151 79.2801 55.6151 79.8351C54.2301 81.7501 53.1501 83.4001 52.4101 84.5601L52.3351 84.6801L51.3751 84.2151L51.5251 83.9851C52.3001 82.8251 53.4301 81.1851 54.8701 79.2851C55.3251 78.6801 55.8201 78.0451 56.3351 77.4001C55.7995 76.8149 55.2987 76.1988 54.8351 75.5551C53.7301 75.9901 51.4401 76.0051 51.1401 76.0051C51.0951 76.7451 51.0551 77.4701 51.0251 78.1501C50.9251 80.5101 50.9351 82.4801 50.9601 83.8601V84.0201L49.9051 83.5201C49.9051 82.1501 49.9601 80.3001 50.1001 78.1101C50.1451 77.3601 50.2101 76.5551 50.2851 75.7301C49.9901 75.6551 47.6051 75.0451 46.7051 74.3251C45.8901 73.6701 45.0301 72.6151 45.0601 71.5051C45.0581 71.2447 45.1109 70.9868 45.2152 70.7481C45.3195 70.5095 45.4728 70.2955 45.6652 70.12C45.8576 69.9446 46.0849 69.8116 46.3321 69.7298C46.5793 69.648 46.841 69.6191 47.1001 69.6451C48.6551 69.8451 49.9601 72.3551 50.2151 73.7301C50.2151 73.8151 50.2951 74.7301 50.3251 75.2801C50.3601 74.9451 50.3851 74.6151 50.4251 74.2801C50.4901 73.5951 50.5801 72.9151 50.6751 72.1801C50.7301 71.8251 50.7901 71.4701 50.8451 71.1101C50.9001 70.7501 50.9951 70.3801 51.0701 70.0101C51.2601 69.1601 51.4901 68.3051 51.7451 67.4501C51.1451 67.3901 49.0201 67.1401 48.1101 66.6151C47.2001 66.0901 46.1901 65.1801 46.0551 64.0801C46.0133 63.8228 46.0262 63.5595 46.0929 63.3076C46.1597 63.0556 46.2788 62.8205 46.4425 62.6176C46.6062 62.4148 46.8108 62.2487 47.043 62.1302C47.2752 62.0118 47.5298 61.9436 47.7901 61.9301C49.3551 61.8951 51.0251 64.1751 51.4851 65.5001C51.5151 65.5801 51.7401 66.5651 51.8551 67.1101C52.0101 66.6101 52.1601 66.0851 52.3551 65.5701C52.8551 64.0701 53.4201 62.6051 53.9701 61.1201C54.1401 60.6651 54.3001 60.2101 54.4701 59.7551C54.2551 59.7551 51.7201 59.4901 50.7001 58.9051C49.7951 58.4051 48.7851 57.4701 48.6451 56.3701C48.6041 56.1129 48.6176 55.8499 48.6846 55.5983C48.7517 55.3466 48.8709 55.1119 49.0344 54.9092C49.198 54.7065 49.4023 54.5405 49.6341 54.4217C49.8659 54.303 50.12 54.2343 50.3801 54.2201C51.9501 54.1851 53.6201 56.4651 54.0801 57.7901C54.1151 57.8901 54.4351 59.2901 54.5001 59.6701C54.8601 58.6701 55.2151 57.6701 55.5001 56.6701C55.9229 55.32 56.257 53.9437 56.5001 52.5501C56.4001 52.5501 53.7551 52.3001 52.7101 51.7001C51.8001 51.2001 50.7901 50.2651 50.6551 49.1651C50.6132 48.908 50.6261 48.6451 50.6929 48.3933C50.7597 48.1416 50.8789 47.9069 51.0427 47.7044C51.2065 47.5019 51.4111 47.3363 51.6433 47.2184C51.8755 47.1004 52.13 47.0329 52.3901 47.0201C53.9551 46.9801 55.6251 49.2601 56.0851 50.5851C56.1151 50.6701 56.3651 51.7501 56.4701 52.2701H56.5551C56.7616 50.8617 56.8419 49.4377 56.7951 48.0151C56.7951 47.2301 56.7201 46.4851 56.6451 45.7601C56.1451 45.7601 53.8751 45.7601 52.8751 45.3251C51.8751 44.8901 50.8101 44.1101 50.5501 43.0351C50.4807 42.7832 50.4653 42.5196 50.5049 42.2614C50.5445 42.0033 50.6381 41.7563 50.7797 41.5369C50.9213 41.3174 51.1077 41.1303 51.3266 40.9878C51.5455 40.8453 51.7921 40.7507 52.0501 40.7101C53.6051 40.4951 55.5151 42.5851 56.1201 43.8451C56.1501 43.9151 56.4101 44.6501 56.5851 45.1901C56.5501 44.8601 56.5151 44.5201 56.4701 44.1901C56.3151 43.0151 56.0951 41.9501 55.8951 41.0051C55.7751 40.4701 55.6601 40.0051 55.5451 39.5401C55.0451 39.2901 53.0851 38.2601 52.4151 37.4301C51.7451 36.6001 51.1451 35.3951 51.4151 34.3251C51.4748 34.0724 51.587 33.8351 51.7442 33.6285C51.9015 33.4219 52.1004 33.2506 52.328 33.1257C52.5557 33.0008 52.807 32.9251 53.0657 32.9034C53.3245 32.8818 53.5849 32.9147 53.8301 33.0001Z" fill="#FF6B57"/>
<path d="M82.1699 57.1449C80.9449 57.0949 78.4949 55.8399 78.4949 55.8399C78.4949 55.8399 79.8099 54.4749 79.9049 54.3999C80.9999 53.5299 83.6299 52.4849 84.9349 53.3549C85.1482 53.5044 85.3276 53.6972 85.4612 53.9207C85.5949 54.1443 85.6798 54.3936 85.7105 54.6522C85.7412 54.9109 85.7169 55.1731 85.6393 55.4217C85.5616 55.6703 85.4323 55.8997 85.2599 56.0949C84.5599 56.9499 83.2149 57.1899 82.1699 57.1449Z" fill="#FF6B57"/>
<g opacity="0.5">
<path d="M56.865 45.5401C56.835 45.5401 57.215 43.6751 57.25 43.5401C57.68 42.2051 59.3 39.8851 60.865 39.8901C61.1257 39.8975 61.3819 39.9597 61.6169 40.0728C61.8519 40.1859 62.0604 40.3472 62.2289 40.5463C62.3973 40.7454 62.5219 40.9778 62.5944 41.2283C62.667 41.4788 62.6859 41.7418 62.65 42.0001C62.535 43.1001 61.545 44.0401 60.65 44.5801C59.6 45.2351 56.865 45.5401 56.865 45.5401Z" fill="white"/>
<path d="M53.8301 33.0001C55.3301 33.5301 56.0401 36.2601 55.9901 37.6601C55.9901 37.7801 55.7101 39.6601 55.6851 39.6601H55.6551C55.7701 40.0901 55.8951 40.5551 56.0201 41.0651C56.2401 42.0051 56.4801 43.0651 56.6651 44.2451C56.8796 45.5091 57.0198 46.7846 57.0851 48.0651C57.1648 49.4999 57.1163 50.9389 56.9401 52.3651C56.9378 52.3817 56.9378 52.3985 56.9401 52.4151C57.1351 52.0001 57.7151 50.8501 57.7651 50.7701C58.5351 49.6001 60.7051 47.7701 62.2201 48.2051C62.4688 48.2809 62.6988 48.4084 62.895 48.5791C63.0911 48.7499 63.2491 48.96 63.3586 49.1959C63.468 49.4318 63.5265 49.6882 63.5302 49.9482C63.5339 50.2082 63.4828 50.4661 63.3801 50.7051C62.9801 51.7351 61.7801 52.3801 60.7751 52.6651C59.6401 52.9901 57.1101 52.6101 56.9101 52.5751C56.6963 54.0226 56.3856 55.4541 55.9801 56.8601C55.7468 57.6801 55.4934 58.4984 55.2201 59.3151C55.3951 58.9601 55.5601 58.6451 55.5851 58.6051C56.3551 57.4301 58.5301 55.6051 60.0401 56.0401C60.2888 56.1159 60.5188 56.2434 60.715 56.4141C60.9111 56.5849 61.0691 56.795 61.1786 57.0309C61.288 57.2668 61.3465 57.5232 61.3502 57.7832C61.3539 58.0432 61.3028 58.3011 61.2001 58.5401C60.8001 59.5701 59.6001 60.2151 58.5951 60.5001C57.5901 60.7851 55.4101 60.5001 54.8401 60.4251L54.5251 61.3651C54.0251 62.8651 53.4801 64.3651 53.0251 65.8351C52.8601 66.3351 52.7151 66.8751 52.5701 67.3951C52.7301 67.0801 52.8651 66.8151 52.8901 66.7751C53.6551 65.6051 55.8301 63.7751 57.3401 64.2101C57.5884 64.2867 57.8178 64.4146 58.0137 64.5854C58.2095 64.7562 58.3674 64.9661 58.4772 65.2016C58.587 65.4371 58.6462 65.6931 58.651 65.9529C58.6558 66.2127 58.6061 66.4706 58.5051 66.7101C58.1051 67.7451 56.9001 68.3851 55.8951 68.6751C54.8901 68.9651 52.9251 68.7101 52.2451 68.6151C52.1101 69.1501 51.9801 69.6851 51.8751 70.2101C51.8101 70.5751 51.7251 70.9151 51.6801 71.2801L51.5301 72.3551C51.4601 73.0401 51.3801 73.7451 51.3301 74.4151C51.2901 74.8801 51.2601 75.3251 51.2301 75.7751C51.3901 75.2751 51.7301 74.2401 51.7301 74.1601C52.2838 73.06 53.1101 72.1202 54.1301 71.4301C54.1845 71.3026 54.2532 71.1818 54.3351 71.0701C54.4766 70.8516 54.6627 70.6655 54.8811 70.5239C55.0995 70.3822 55.3454 70.2883 55.6025 70.2482C55.8597 70.2081 56.1225 70.2227 56.3737 70.2911C56.6248 70.3595 56.8587 70.4801 57.0601 70.6451C58.2501 71.6701 57.9501 74.4801 57.4051 75.7701C57.3751 75.8451 56.9301 76.6301 56.6451 77.1251C56.8601 76.8601 57.0601 76.6001 57.2851 76.3351C57.7201 75.8001 58.1701 75.2801 58.6501 74.7201L59.3851 73.9251C59.6251 73.6551 59.9151 73.4251 60.1801 73.1301C60.8051 72.5251 61.4701 71.9401 62.1551 71.3651C61.6901 70.9851 60.0501 69.6051 59.5801 68.6651C59.1101 67.7251 58.7751 66.4101 59.2651 65.4151C59.3729 65.1778 59.5293 64.9658 59.7242 64.7928C59.9192 64.6199 60.1483 64.4898 60.3967 64.4111C60.6452 64.3324 60.9074 64.3067 61.1664 64.3358C61.4254 64.3649 61.6753 64.4482 61.9001 64.5801C63.2251 65.4151 63.3601 68.2401 63.0151 69.5801C63.0151 69.6651 62.6351 70.6101 62.4301 71.1251C62.8451 70.7851 63.2551 70.4451 63.6851 70.1251C64.9251 69.1701 66.2101 68.2351 67.4851 67.3001L68.6501 66.4401C68.4851 66.3051 66.5051 64.7051 65.9751 63.6501C65.5101 62.7151 65.1701 61.3951 65.6601 60.4051C65.7672 60.1672 65.9233 59.9547 66.1182 59.7813C66.3131 59.6079 66.5423 59.4775 66.791 59.3987C67.0397 59.3199 67.3021 59.2945 67.5613 59.324C67.8205 59.3535 68.0705 59.4374 68.2951 59.5701C69.6251 60.4001 69.7551 63.2251 69.4101 64.5701C69.3851 64.6701 68.8701 66.0301 68.7251 66.3701C69.5751 65.7351 70.4201 65.0951 71.2251 64.4251C72.3204 63.5322 73.3559 62.5685 74.3251 61.5401C74.2501 61.4751 72.1751 59.8151 71.6351 58.7401C71.1651 57.8051 70.8301 56.4801 71.3201 55.4901C71.4273 55.2529 71.5832 55.041 71.7777 54.8681C71.9722 54.6952 72.2009 54.5651 72.449 54.4864C72.697 54.4076 72.9589 54.3819 73.2175 54.411C73.4761 54.4401 73.7257 54.5232 73.9501 54.6551C75.2801 55.4901 75.4151 58.3151 75.0701 59.6551C75.0701 59.7451 74.6551 60.7801 74.4601 61.2701L74.5351 61.3201C75.4823 60.2571 76.3339 59.1127 77.0801 57.9001C77.5001 57.2351 77.8601 56.5801 78.2001 55.9351C77.7801 55.6651 75.8851 54.4101 75.2901 53.4951C74.6951 52.5801 74.2451 51.3401 74.6201 50.3001C74.7005 50.0522 74.8321 49.824 75.0066 49.6303C75.181 49.4367 75.3943 49.2821 75.6326 49.1764C75.8708 49.0707 76.1286 49.0164 76.3892 49.0171C76.6498 49.0177 76.9074 49.0732 77.1451 49.1801C78.5601 49.8651 79.0001 52.6801 78.8051 54.0451C78.8051 54.1201 78.6051 54.8751 78.4601 55.4201C78.6051 55.1251 78.7651 54.8251 78.9001 54.5401C79.4001 53.4751 79.8251 52.4651 80.1751 51.5401C80.3751 51.0401 80.5401 50.5651 80.6751 50.1251C80.4001 49.6251 79.3301 47.7051 79.2251 46.6251C79.1201 45.5451 79.2901 44.2351 80.1051 43.4851C80.2907 43.3024 80.5126 43.1609 80.7564 43.0697C81.0003 42.9785 81.2606 42.9397 81.5205 42.9557C81.7804 42.9717 82.0339 43.0423 82.2647 43.1628C82.4955 43.2833 82.6984 43.451 82.8601 43.6551C83.8001 44.9101 82.9051 47.5951 82.0951 48.7351C82.0251 48.8351 80.7501 50.2351 80.7351 50.2351V50.2051C80.5951 50.6301 80.4451 51.0851 80.2651 51.5751C79.9351 52.4851 79.5501 53.5051 79.0551 54.5751C78.5318 55.7459 77.9425 56.886 77.2901 57.9901C76.562 59.2284 75.7254 60.3997 74.7901 61.4901L74.7551 61.5301C75.1451 61.2901 76.2551 60.6501 76.3501 60.6101C77.6401 60.0601 80.4501 59.7501 81.4801 60.9301C81.6459 61.1309 81.7675 61.3644 81.8371 61.6153C81.9067 61.8662 81.9227 62.129 81.884 62.3865C81.8453 62.644 81.7529 62.8905 81.6126 63.1099C81.4724 63.3294 81.2875 63.5168 81.0701 63.6601C80.1651 64.3001 78.8101 64.1601 77.8101 63.8601C76.6851 63.5001 74.8101 61.7901 74.6401 61.6501C73.6635 62.7396 72.6144 63.7619 71.5001 64.7101C70.8551 65.2651 70.1851 65.8051 69.5001 66.3401C69.8451 66.1401 70.1551 65.9651 70.2001 65.9451C71.4851 65.3951 74.2951 65.0851 75.3251 66.2651C75.4916 66.4656 75.6139 66.699 75.6839 66.95C75.754 67.2011 75.7702 67.4641 75.7315 67.7219C75.6928 67.9796 75.6 68.2263 75.4593 68.4457C75.3186 68.6651 75.1332 68.8523 74.9151 68.9951C74.0151 69.6351 72.6551 69.4951 71.6601 69.1951C70.6651 68.8951 69.0001 67.4451 68.5701 67.0601C68.3051 67.2601 68.0701 67.4651 67.7851 67.6701C66.5301 68.6301 65.2851 69.5851 64.0601 70.5651C63.6351 70.9051 63.2301 71.2601 62.8201 71.6151L63.4301 71.2751C64.7151 70.7251 67.5251 70.4101 68.5551 71.5901C68.721 71.7913 68.8427 72.0252 68.9123 72.2765C68.9819 72.5278 68.9979 72.791 68.9593 73.0489C68.9206 73.3068 68.8282 73.5537 68.6879 73.7736C68.5476 73.9934 68.3627 74.1813 68.1451 74.3251C67.2451 74.9651 65.8851 74.8251 64.8901 74.5201C63.8951 74.2151 62.3901 72.9101 61.8901 72.4551C61.4851 72.8301 61.0751 73.2051 60.7001 73.5851C60.4451 73.8501 60.2001 74.0851 59.9501 74.3701L59.2301 75.1801C58.7951 75.7151 58.3401 76.2601 57.9251 76.7901C57.6351 77.1551 57.3651 77.5101 57.0951 77.8701C57.5101 77.5201 58.3501 76.8701 58.4251 76.8101C59.6101 76.0701 62.3451 75.3101 63.5401 76.3501C63.7338 76.524 63.8886 76.7368 63.9947 76.9746C64.1007 77.2123 64.1555 77.4697 64.1555 77.7301C64.1555 77.9904 64.1007 78.2478 63.9947 78.4856C63.8886 78.7233 63.7338 78.9361 63.5401 79.1101C62.7401 79.8801 61.3801 79.9601 60.3501 79.8001C59.2101 79.6201 57.1501 78.3001 56.8951 78.1101C56.4451 78.7051 56.0151 79.2801 55.6151 79.8351C54.2301 81.7501 53.1501 83.4001 52.4101 84.5601L52.3351 84.6801L51.3751 84.2151L51.5251 83.9851C52.3001 82.8251 53.4301 81.1851 54.8701 79.2851C55.3251 78.6801 55.8201 78.0451 56.3351 77.4001C55.7995 76.8149 55.2987 76.1988 54.8351 75.5551C53.7301 75.9901 51.4401 76.0051 51.1401 76.0051C51.0951 76.7451 51.0551 77.4701 51.0251 78.1501C50.9251 80.5101 50.9351 82.4801 50.9601 83.8601V84.0201L49.9051 83.5201C49.9051 82.1501 49.9601 80.3001 50.1001 78.1101C50.1451 77.3601 50.2101 76.5551 50.2851 75.7301C49.9901 75.6551 47.6051 75.0451 46.7051 74.3251C45.8901 73.6701 45.0301 72.6151 45.0601 71.5051C45.0581 71.2447 45.1109 70.9868 45.2152 70.7481C45.3195 70.5095 45.4728 70.2955 45.6652 70.12C45.8576 69.9446 46.0849 69.8116 46.3321 69.7298C46.5793 69.648 46.841 69.6191 47.1001 69.6451C48.6551 69.8451 49.9601 72.3551 50.2151 73.7301C50.2151 73.8151 50.2951 74.7301 50.3251 75.2801C50.3601 74.9451 50.3851 74.6151 50.4251 74.2801C50.4901 73.5951 50.5801 72.9151 50.6751 72.1801C50.7301 71.8251 50.7901 71.4701 50.8451 71.1101C50.9001 70.7501 50.9951 70.3801 51.0701 70.0101C51.2601 69.1601 51.4901 68.3051 51.7451 67.4501C51.1451 67.3901 49.0201 67.1401 48.1101 66.6151C47.2001 66.0901 46.1901 65.1801 46.0551 64.0801C46.0133 63.8228 46.0262 63.5595 46.0929 63.3076C46.1597 63.0556 46.2788 62.8205 46.4425 62.6176C46.6062 62.4148 46.8108 62.2487 47.043 62.1302C47.2752 62.0118 47.5298 61.9436 47.7901 61.9301C49.3551 61.8951 51.0251 64.1751 51.4851 65.5001C51.5151 65.5801 51.7401 66.5651 51.8551 67.1101C52.0101 66.6101 52.1601 66.0851 52.3551 65.5701C52.8551 64.0701 53.4201 62.6051 53.9701 61.1201C54.1401 60.6651 54.3001 60.2101 54.4701 59.7551C54.2551 59.7551 51.7201 59.4901 50.7001 58.9051C49.7951 58.4051 48.7851 57.4701 48.6451 56.3701C48.6041 56.1129 48.6176 55.8499 48.6846 55.5983C48.7517 55.3466 48.8709 55.1119 49.0344 54.9092C49.198 54.7065 49.4023 54.5405 49.6341 54.4217C49.8659 54.303 50.12 54.2343 50.3801 54.2201C51.9501 54.1851 53.6201 56.4651 54.0801 57.7901C54.1151 57.8901 54.4351 59.2901 54.5001 59.6701C54.8601 58.6701 55.2151 57.6701 55.5001 56.6701C55.9229 55.32 56.257 53.9437 56.5001 52.5501C56.4001 52.5501 53.7551 52.3001 52.7101 51.7001C51.8001 51.2001 50.7901 50.2651 50.6551 49.1651C50.6132 48.908 50.6261 48.6451 50.6929 48.3933C50.7597 48.1416 50.8789 47.9069 51.0427 47.7044C51.2065 47.5019 51.4111 47.3363 51.6433 47.2184C51.8755 47.1004 52.13 47.0329 52.3901 47.0201C53.9551 46.9801 55.6251 49.2601 56.0851 50.5851C56.1151 50.6701 56.3651 51.7501 56.4701 52.2701H56.5551C56.7616 50.8617 56.8419 49.4377 56.7951 48.0151C56.7951 47.2301 56.7201 46.4851 56.6451 45.7601C56.1451 45.7601 53.8751 45.7601 52.8751 45.3251C51.8751 44.8901 50.8101 44.1101 50.5501 43.0351C50.4807 42.7832 50.4653 42.5196 50.5049 42.2614C50.5445 42.0033 50.6381 41.7563 50.7797 41.5369C50.9213 41.3174 51.1077 41.1303 51.3266 40.9878C51.5455 40.8453 51.7921 40.7507 52.0501 40.7101C53.6051 40.4951 55.5151 42.5851 56.1201 43.8451C56.1501 43.9151 56.4101 44.6501 56.5851 45.1901C56.5501 44.8601 56.5151 44.5201 56.4701 44.1901C56.3151 43.0151 56.0951 41.9501 55.8951 41.0051C55.7751 40.4701 55.6601 40.0051 55.5451 39.5401C55.0451 39.2901 53.0851 38.2601 52.4151 37.4301C51.7451 36.6001 51.1451 35.3951 51.4151 34.3251C51.4748 34.0724 51.587 33.8351 51.7442 33.6285C51.9015 33.4219 52.1004 33.2506 52.328 33.1257C52.5557 33.0008 52.807 32.9251 53.0657 32.9034C53.3245 32.8818 53.5849 32.9147 53.8301 33.0001Z" fill="white"/>
<path d="M82.1701 57.1449C80.9451 57.0949 78.4951 55.8399 78.4951 55.8399C78.4951 55.8399 79.8101 54.4749 79.9051 54.3999C81.0001 53.5299 83.6301 52.4849 84.9351 53.3549C85.1484 53.5044 85.3278 53.6972 85.4615 53.9207C85.5951 54.1443 85.6801 54.3936 85.7108 54.6522C85.7414 54.9109 85.7172 55.1731 85.6395 55.4217C85.5618 55.6703 85.4326 55.8997 85.2601 56.0949C84.5601 56.9499 83.2151 57.1899 82.1701 57.1449Z" fill="white"/>
</g>
<path d="M67.865 87.8249C67.865 87.8249 60.43 69.9049 56.27 70.6849C52.11 71.4649 63.405 99.2549 63.405 99.2549C63.405 99.2549 50.325 74.5799 41.405 74.5799C32.485 74.5799 44.675 101.85 56 110.94C56 110.94 38.16 91.7199 27.755 95.8749C17.35 100.03 48.54 119.5 48.54 119.5C48.54 119.5 30.405 113.795 32.5 118.215C34.595 122.635 40.23 123.405 40.23 123.405L45 124.445H71L75 122.89C75 122.89 91.65 114.575 87.19 111.2C82.73 107.825 72.92 115.095 72.92 115.095C72.92 115.095 89.865 96.3949 86.595 89.3849C83.325 82.3749 68.755 102.11 68.755 102.11C68.755 102.11 80.65 76.9149 78.255 72.4999C75.86 68.0849 67.865 87.8249 67.865 87.8249Z" fill="#FF6B57"/>
<path opacity="0.4" d="M67.865 87.8249C67.865 87.8249 60.43 69.9049 56.27 70.6849C52.11 71.4649 63.405 99.2549 63.405 99.2549C63.405 99.2549 50.325 74.5799 41.405 74.5799C32.485 74.5799 44.675 101.85 56 110.94C56 110.94 38.16 91.7199 27.755 95.8749C17.35 100.03 48.54 119.5 48.54 119.5C48.54 119.5 30.405 113.795 32.5 118.215C34.595 122.635 40.23 123.405 40.23 123.405L48 124.445H69L75 122.89C75 122.89 91.65 114.575 87.19 111.2C82.73 107.825 72.92 115.095 72.92 115.095C72.92 115.095 89.865 96.3949 86.595 89.3849C83.325 82.3749 68.755 102.11 68.755 102.11C68.755 102.11 80.65 76.9149 78.255 72.4999C75.86 68.0849 67.865 87.8249 67.865 87.8249Z" fill="white"/>
<path d="M70.2451 88.77C63.7051 108.095 63.7051 121.77 63.7051 121.77C63.7051 121.77 71.4351 122.07 79.4601 116.12" stroke="#263238" stroke-linecap="round" stroke-linejoin="round"/>
<path d="M67 99.175C65.6505 93.3981 63.8603 87.7332 61.645 82.23" stroke="#263238" stroke-linecap="round" stroke-linejoin="round"/>
<path d="M47.6499 87.875L64.2949 112.555C64.2949 112.555 75.5949 103.055 79.4599 97.69" stroke="#263238" stroke-linecap="round" stroke-linejoin="round"/>
<path d="M64 118.5C64 118.5 46.46 110.175 39.325 105.42" stroke="#263238" stroke-linecap="round" stroke-linejoin="round"/>
<path d="M116.805 47.8149H113.19V198.46H116.805V47.8149Z" fill="#C2C2C2" stroke="#ABABAB" stroke-linecap="round" stroke-linejoin="round"/>
<path d="M51.7752 47.8149H48.1602V198.46H51.7752V47.8149Z" fill="#C2C2C2" stroke="#ABABAB" stroke-linecap="round" stroke-linejoin="round"/>
<path d="M84.29 47.8149H80.675V198.46H84.29V47.8149Z" fill="#C2C2C2" stroke="#ABABAB" stroke-linecap="round" stroke-linejoin="round"/>
<path d="M149.315 47.8149H145.7V198.46H149.315V47.8149Z" fill="#C2C2C2" stroke="#ABABAB" stroke-linecap="round" stroke-linejoin="round"/>
<path d="M148.23 52.5098H46.9951V59.3748H148.23V52.5098Z" fill="#C2C2C2" stroke="#ABABAB" stroke-linecap="round" stroke-linejoin="round"/>
<path d="M148.23 52.5098H83.0801V59.3748H148.23V52.5098Z" fill="#A6A6A6" stroke="#ABABAB" stroke-linecap="round" stroke-linejoin="round"/>
<path d="M148.23 121.635H46.9951V128.5H148.23V121.635Z" fill="#C2C2C2" stroke="#ABABAB" stroke-linecap="round" stroke-linejoin="round"/>
<path d="M148.23 121.635H83.0801V128.5H148.23V121.635Z" fill="#A6A6A6" stroke="#ABABAB" stroke-linecap="round" stroke-linejoin="round"/>
<path d="M148.23 190.755H46.9951V197.62H148.23V190.755Z" fill="#C2C2C2" stroke="#ABABAB" stroke-linecap="round" stroke-linejoin="round"/>
<path d="M148.23 190.755H83.0801V197.62H148.23V190.755Z" fill="#A6A6A6" stroke="#ABABAB" stroke-linecap="round" stroke-linejoin="round"/>
<path d="M83.095 153.9H30.115V198.405H83.095V153.9Z" fill="#FF6B57"/>
<mask id="mask0_1182_4234" style="mask-type:luminance" maskUnits="userSpaceOnUse" x="30" y="153" width="54" height="46">
<path d="M83.095 153.9H30.115V198.405H83.095V153.9Z" fill="white"/>
</mask>
<g mask="url(#mask0_1182_4234)">
<path opacity="0.6" d="M83.095 153.9H30.115V198.405H83.095V153.9Z" fill="white" stroke="#696969" stroke-linecap="round" stroke-linejoin="round"/>
</g>
<path d="M83.095 153.9H30.115V198.405H83.095V153.9Z" stroke="#696969" stroke-linecap="round" stroke-linejoin="round"/>
<path d="M83.095 153.9H65.49V198.405H83.095V153.9Z" fill="#FF6B57"/>
<mask id="mask1_1182_4234" style="mask-type:luminance" maskUnits="userSpaceOnUse" x="65" y="153" width="19" height="46">
<path d="M83.095 153.9H65.49V198.405H83.095V153.9Z" fill="white"/>
</mask>
<g mask="url(#mask1_1182_4234)">
<path opacity="0.39" d="M83.095 153.9H65.49V198.405H83.095V153.9Z" fill="white" stroke="#696969" stroke-linecap="round" stroke-linejoin="round"/>
</g>
<path d="M83.095 153.9H65.49V198.405H83.095V153.9Z" stroke="#696969" stroke-linecap="round" stroke-linejoin="round"/>
<path d="M74.4751 154.02V198.46" stroke="#696969" stroke-linecap="round" stroke-linejoin="round"/>
<path d="M85.77 109.465H32.79V153.97H85.77V109.465Z" fill="#FF6B57"/>
<mask id="mask2_1182_4234" style="mask-type:luminance" maskUnits="userSpaceOnUse" x="32" y="109" width="54" height="45">
<path d="M85.77 109.465H32.79V153.97H85.77V109.465Z" fill="white"/>
</mask>
<g mask="url(#mask2_1182_4234)">
<path opacity="0.6" d="M85.77 109.465H32.79V153.97H85.77V109.465Z" fill="white" stroke="#696969" stroke-linecap="round" stroke-linejoin="round"/>
</g>
<path d="M85.77 109.465H32.79V153.97H85.77V109.465Z" stroke="#696969" stroke-linecap="round" stroke-linejoin="round"/>
<path d="M85.77 109.465H68.165V153.97H85.77V109.465Z" fill="#FF6B57"/>
<mask id="mask3_1182_4234" style="mask-type:luminance" maskUnits="userSpaceOnUse" x="68" y="109" width="18" height="45">
<path d="M85.77 109.465H68.165V153.97H85.77V109.465Z" fill="white"/>
</mask>
<g mask="url(#mask3_1182_4234)">
<path opacity="0.39" d="M85.77 109.465H68.165V153.97H85.77V109.465Z" fill="white" stroke="#696969" stroke-linecap="round" stroke-linejoin="round"/>
</g>
<path d="M85.77 109.465H68.165V153.97H85.77V109.465Z" stroke="#696969" stroke-linecap="round" stroke-linejoin="round"/>
<path d="M77.1499 109.585V154.025" stroke="#696969" stroke-linecap="round" stroke-linejoin="round"/>
<path d="M223.64 153.9H170.66V198.405H223.64V153.9Z" fill="#FF6B57"/>
<mask id="mask4_1182_4234" style="mask-type:luminance" maskUnits="userSpaceOnUse" x="170" y="153" width="54" height="46">
<path d="M223.64 153.9H170.66V198.405H223.64V153.9Z" fill="white"/>
</mask>
<g mask="url(#mask4_1182_4234)">
<path opacity="0.6" d="M223.64 153.9H170.66V198.405H223.64V153.9Z" fill="white" stroke="#919191" stroke-linecap="round" stroke-linejoin="round"/>
</g>
<path d="M223.64 153.9H170.66V198.405H223.64V153.9Z" stroke="#919191" stroke-linecap="round" stroke-linejoin="round"/>
<path d="M223.64 153.9H206.035V198.405H223.64V153.9Z" fill="#FF6B57"/>
<mask id="mask5_1182_4234" style="mask-type:luminance" maskUnits="userSpaceOnUse" x="206" y="153" width="18" height="46">
<path d="M223.64 153.9H206.035V198.405H223.64V153.9Z" fill="white"/>
</mask>
<g mask="url(#mask5_1182_4234)">
<path opacity="0.39" d="M223.64 153.9H206.035V198.405H223.64V153.9Z" fill="white" stroke="#919191" stroke-linecap="round" stroke-linejoin="round"/>
</g>
<path d="M223.64 153.9H206.035V198.405H223.64V153.9Z" stroke="#919191" stroke-linecap="round" stroke-linejoin="round"/>
<path d="M215.02 154.02V198.46" stroke="#919191" stroke-linecap="round" stroke-linejoin="round"/>
<path d="M223.64 109.35H170.66V153.855H223.64V109.35Z" fill="#FF6B57"/>
<mask id="mask6_1182_4234" style="mask-type:luminance" maskUnits="userSpaceOnUse" x="170" y="109" width="54" height="45">
<path d="M223.64 109.35H170.66V153.855H223.64V109.35Z" fill="white"/>
</mask>
<g mask="url(#mask6_1182_4234)">
<path opacity="0.6" d="M223.64 109.35H170.66V153.855H223.64V109.35Z" fill="white" stroke="#919191" stroke-linecap="round" stroke-linejoin="round"/>
</g>
<path d="M223.64 109.35H170.66V153.855H223.64V109.35Z" stroke="#919191" stroke-linecap="round" stroke-linejoin="round"/>
<path d="M223.64 109.35H206.035V153.855H223.64V109.35Z" fill="#FF6B57"/>
<mask id="mask7_1182_4234" style="mask-type:luminance" maskUnits="userSpaceOnUse" x="206" y="109" width="18" height="45">
<path d="M223.64 109.35H206.035V153.855H223.64V109.35Z" fill="white"/>
</mask>
<g mask="url(#mask7_1182_4234)">
<path opacity="0.39" d="M223.64 109.35H206.035V153.855H223.64V109.35Z" fill="white" stroke="#919191" stroke-linecap="round" stroke-linejoin="round"/>
</g>
<path d="M223.64 109.35H206.035V153.855H223.64V109.35Z" stroke="#919191" stroke-linecap="round" stroke-linejoin="round"/>
<path d="M215.02 109.47V153.91" stroke="#919191" stroke-linecap="round" stroke-linejoin="round"/>
<path d="M218.985 72.5H175.16V109.315H218.985V72.5Z" fill="#FF6B57"/>
<mask id="mask8_1182_4234" style="mask-type:luminance" maskUnits="userSpaceOnUse" x="175" y="72" width="44" height="38">
<path d="M218.985 72.5H175.16V109.315H218.985V72.5Z" fill="white"/>
</mask>
<g mask="url(#mask8_1182_4234)">
<path opacity="0.6" d="M218.985 72.5H175.16V109.315H218.985V72.5Z" fill="white" stroke="#919191" stroke-linecap="round" stroke-linejoin="round"/>
</g>
<path d="M218.985 72.5H175.16V109.315H218.985V72.5Z" stroke="#919191" stroke-linecap="round" stroke-linejoin="round"/>
<path d="M218.985 72.5H204.425V109.315H218.985V72.5Z" fill="#FF6B57"/>
<mask id="mask9_1182_4234" style="mask-type:luminance" maskUnits="userSpaceOnUse" x="204" y="72" width="15" height="38">
<path d="M218.985 72.5H204.425V109.315H218.985V72.5Z" fill="white"/>
</mask>
<g mask="url(#mask9_1182_4234)">
<path opacity="0.39" d="M218.985 72.5H204.425V109.315H218.985V72.5Z" fill="white" stroke="#919191" stroke-linecap="round" stroke-linejoin="round"/>
</g>
<path d="M218.985 72.5H204.425V109.315H218.985V72.5Z" stroke="#919191" stroke-linecap="round" stroke-linejoin="round"/>
<path d="M211.855 72.6001V109.36" stroke="#919191" stroke-linecap="round" stroke-linejoin="round"/>
<path d="M213.38 181.675H206.515V185.97H213.38V181.675Z" fill="white" stroke="#263238" stroke-linecap="round" stroke-linejoin="round"/>
<path d="M148.78 198.46C151.072 198.46 152.93 196.602 152.93 194.31C152.93 192.018 151.072 190.16 148.78 190.16C146.488 190.16 144.63 192.018 144.63 194.31C144.63 196.602 146.488 198.46 148.78 198.46Z" fill="#263238" stroke="#263238" stroke-linecap="round" stroke-linejoin="round"/>
<path d="M217.07 125.62H214.62V194.405H217.07V125.62Z" fill="#263238" stroke="#263238" stroke-linecap="round" stroke-linejoin="round"/>
<path d="M215.765 149.68L209.97 145.07C207.505 143.106 205.656 140.475 204.643 137.491C203.63 134.506 203.495 131.294 204.255 128.235C204.478 127.342 204.993 126.549 205.717 125.982C206.442 125.414 207.335 125.104 208.255 125.1H223.255C224.176 125.102 225.069 125.411 225.794 125.979C226.519 126.548 227.033 127.341 227.255 128.235C228.016 131.293 227.882 134.506 226.87 137.49C225.858 140.475 224.009 143.106 221.545 145.07L215.765 149.68ZM208.265 127.445C207.864 127.444 207.475 127.577 207.159 127.824C206.844 128.07 206.62 128.416 206.525 128.805C205.872 131.426 205.986 134.18 206.854 136.739C207.721 139.297 209.306 141.552 211.42 143.235L215.755 146.685L220.095 143.235C222.209 141.553 223.796 139.298 224.665 136.74C225.535 134.182 225.651 131.427 225 128.805C224.904 128.416 224.68 128.071 224.365 127.825C224.049 127.578 223.66 127.445 223.26 127.445H208.265Z" fill="#263238"/>
<path d="M201.38 183.825H125.515V192.655H201.38V183.825Z" fill="white"/>
<mask id="mask10_1182_4234" style="mask-type:luminance" maskUnits="userSpaceOnUse" x="125" y="183" width="77" height="10">
<path d="M201.38 183.825H125.515V192.655H201.38V183.825Z" fill="white"/>
</mask>
<g mask="url(#mask10_1182_4234)">
<path opacity="0.28" d="M201.38 183.825H125.515V192.655H201.38V183.825Z" fill="black" stroke="#263238" stroke-linecap="round" stroke-linejoin="round"/>
</g>
<path d="M201.38 183.825H125.515V192.655H201.38V183.825Z" stroke="#263238" stroke-linecap="round" stroke-linejoin="round"/>
<path d="M134.015 183.825H125.515V192.655H134.015V183.825Z" stroke="#263238" stroke-linecap="round" stroke-linejoin="round"/>
<path d="M201.375 183.825H192.875V192.655H201.375V183.825Z" stroke="#263238" stroke-linecap="round" stroke-linejoin="round"/>
<path d="M167.695 183.825H159.195V192.655H167.695V183.825Z" stroke="#263238" stroke-linecap="round" stroke-linejoin="round"/>
<path d="M201.38 192.655H206.61L213.15 167.8H207.92L201.38 192.655Z" fill="white" stroke="#263238" stroke-linecap="round" stroke-linejoin="round"/>
<path d="M219.28 178.265H212.415V189.385H219.28V178.265Z" fill="white" stroke="#263238" stroke-linecap="round" stroke-linejoin="round"/>
<path d="M214.165 198.461C213.776 198.454 213.404 198.297 213.129 198.021C212.854 197.746 212.696 197.375 212.69 196.986V191.451C212.696 191.061 212.854 190.69 213.129 190.415C213.404 190.139 213.776 189.982 214.165 189.976C214.554 189.982 214.926 190.139 215.201 190.415C215.476 190.69 215.634 191.061 215.64 191.451V197.001C215.63 197.387 215.471 197.755 215.196 198.027C214.921 198.299 214.552 198.454 214.165 198.461Z" fill="#263238"/>
<path d="M217.67 198.461C217.281 198.454 216.909 198.297 216.634 198.021C216.359 197.746 216.201 197.375 216.195 196.986V191.451C216.201 191.061 216.359 190.69 216.634 190.415C216.909 190.139 217.281 189.982 217.67 189.976C218.063 189.976 218.441 190.13 218.722 190.406C219.002 190.682 219.163 191.057 219.17 191.451V197.001C219.159 197.391 218.997 197.763 218.717 198.035C218.436 198.308 218.061 198.461 217.67 198.461Z" fill="#263238"/>
<path d="M23.4099 198.46H230.315" stroke="#263238" stroke-linecap="round" stroke-linejoin="round"/>
<path d="M94.795 212.905C114.744 212.905 130.915 210.94 130.915 208.515C130.915 206.09 114.744 204.125 94.795 204.125C74.8465 204.125 58.675 206.09 58.675 208.515C58.675 210.94 74.8465 212.905 94.795 212.905Z" fill="#FF6B57"/>
<path opacity="0.5" d="M94.795 212.905C114.744 212.905 130.915 210.94 130.915 208.515C130.915 206.09 114.744 204.125 94.795 204.125C74.8465 204.125 58.675 206.09 58.675 208.515C58.675 210.94 74.8465 212.905 94.795 212.905Z" fill="white"/>
<path d="M169.54 208.499C169.54 209.709 161.475 210.689 151.54 210.689C141.605 210.689 133.54 209.689 133.54 208.499C133.54 207.309 141.6 206.314 151.54 206.314C161.48 206.314 169.54 207.309 169.54 208.499Z" fill="#FF6B57"/>
<path opacity="0.5" d="M169.54 208.499C169.54 209.709 161.475 210.689 151.54 210.689C141.605 210.689 133.54 209.689 133.54 208.499C133.54 207.309 141.6 206.314 151.54 206.314C161.48 206.314 169.54 207.309 169.54 208.499Z" fill="white"/>
<path d="M102 63.8949C102 63.8949 99.205 61.6999 96 62.7949C92.795 63.8899 90.365 69.2299 89.5 73.5699C88.635 77.9099 85.31 81.1999 86.11 86.2899C86.91 91.3799 92.695 92.1749 99.68 92.9249C106.665 93.6749 110.455 92.8249 113.745 88.2349C117.035 83.6449 115.64 78.0599 113.695 73.1199C111.75 68.1799 108.51 63.5949 105.815 62.7449C103.12 61.8949 102 63.8949 102 63.8949Z" fill="#263238" stroke="#263238" stroke-linecap="round" stroke-linejoin="round"/>
<path d="M90.45 90C90.9216 90.2121 91.4121 90.3795 91.915 90.5" stroke="white" stroke-linecap="round" stroke-linejoin="round"/>
<path d="M101.3 67.4497C100.161 69.9949 98.7169 72.3924 97 74.5897C94.14 78.2647 87.815 81.7347 87.41 85.5897C87.3449 86.1058 87.3901 86.6299 87.5427 87.1272C87.6953 87.6246 87.9517 88.0839 88.295 88.4747" stroke="white" stroke-linecap="round" stroke-linejoin="round"/>
<path d="M112.905 85.8848C112.698 86.3687 112.433 86.8255 112.115 87.2448" stroke="white" stroke-linecap="round" stroke-linejoin="round"/>
<path d="M110.5 76.2246C110.5 76.2246 113.715 79.9346 113.405 83.8946" stroke="white" stroke-linecap="round" stroke-linejoin="round"/>
<path d="M100.69 65.4048C99.437 65.2772 98.1716 65.4517 96.9998 65.9137C95.828 66.3756 94.784 67.1115 93.955 68.0598C93.84 68.1898 93.735 68.3198 93.635 68.4498" stroke="white" stroke-linecap="round" stroke-linejoin="round"/>
<path d="M82.2451 159.65L81.6201 169.27C81.6201 169.27 78.9601 182.175 78.1201 187.495C77.2801 192.815 75.7401 200.905 75.4601 200.905C75.1801 200.905 70.5901 203.68 69.1201 205.945C67.6501 208.21 69.5151 209.17 71.5551 208.445C73.5951 207.72 76.3651 205.67 77.2701 203.235C78.1751 200.8 78.6251 199.895 78.6851 199.5C78.7451 199.105 88.4201 173.13 89.3801 170.355C90.3401 167.58 92.3801 159.43 92.3801 159.43L97.1351 143.3C97.1351 143.3 102.225 159.885 102.285 160.62C102.345 161.355 107.545 203.745 107.785 205.33C108.025 206.915 107.955 208.045 108.915 208.385C109.875 208.725 112.14 208.725 113.33 208.725C114.52 208.725 118.65 209.35 120.685 208.84C122.72 208.33 122.95 207.99 121.535 206.97C120.12 205.95 112.26 205.3 111.535 202.33C111.475 202.105 111.42 158.47 111.42 158.47C111.42 158.47 110.74 144.04 109.61 139.97H83.4601L82.2451 159.65Z" fill="white" stroke="#263238" stroke-linecap="round" stroke-linejoin="round"/>
<path d="M71.55 208.434C73.585 207.694 76.36 205.659 77.265 203.224L77.455 202.724C76.3 203.954 74.455 205.664 74.455 205.664C74.3419 205.084 74.0897 204.54 73.72 204.079C73.5587 203.901 73.352 203.771 73.1222 203.701C72.8923 203.632 72.6479 203.626 72.415 203.684L74.415 201.484C72.915 202.414 70.215 204.314 69.155 205.949C67.64 208.204 69.5 209.169 71.55 208.434Z" fill="#263238" stroke="#263238" stroke-linecap="round" stroke-linejoin="round"/>
<path d="M121.5 206.959C120.53 206.264 116.545 205.739 113.885 204.524C113.775 204.618 113.69 204.736 113.635 204.869C113.466 205.349 113.334 205.84 113.24 206.339L107.74 205.164V205.319C107.965 206.904 107.91 208.034 108.87 208.374C109.83 208.714 112.095 208.714 113.285 208.714C114.475 208.714 118.605 209.339 120.64 208.829C122.675 208.319 122.935 207.999 121.5 206.959Z" fill="#263238" stroke="#263238" stroke-linecap="round" stroke-linejoin="round"/>
<path d="M89.8652 116.5C89.8652 116.5 87.2702 117.695 84.1301 123.335C80.6951 129.49 81.2852 132.91 81.2352 140.335C81.1852 147.76 81.0352 160.085 81.0352 160.085C81.0352 160.085 90.5352 162.63 97.3502 162.23C104.165 161.83 112.81 160.285 112.81 160.285C112.81 160.285 110.965 135.145 109.22 127.915C107.475 120.685 106.425 117.415 106.425 117.415C103.053 117.883 99.6351 117.933 96.2502 117.565C90.4652 117 89.8652 116.5 89.8652 116.5Z" fill="#263238" stroke="#263238" stroke-linecap="round" stroke-linejoin="round"/>
<path d="M100.795 138.735C101.055 139.59 101.295 140.455 101.505 141.32" stroke="white" stroke-linecap="round" stroke-linejoin="round"/>
<path d="M94.77 124.585C96.7842 128.302 98.5125 132.166 99.94 136.145" stroke="white" stroke-linecap="round" stroke-linejoin="round"/>
<path d="M153.56 111.72C153.26 111.52 148.345 110.75 148.345 110.75L147.385 110.355C147.385 110.355 153.335 110.83 153.385 110.58C153.435 110.33 153.635 110.03 153.235 109.98C152.835 109.93 145.18 108.375 145.18 108.375C145.18 108.375 147.125 106.535 147.375 106.135C147.625 105.735 147.97 104.935 147.57 104.935C147.17 104.935 147.07 105.185 146.525 105.535C145.98 105.885 143.83 106.735 143.23 107.23C142.63 107.725 140.84 109.025 140.84 109.025L120.05 106.165C120.05 106.165 112.75 97.1649 111.165 95.2449C110.063 93.9636 108.809 92.8218 107.43 91.8449C105.9 91.1699 105.93 92.2999 105.93 92.2999L109.125 106.5C109.125 106.5 117.39 111.425 117.9 111.425C118.41 111.425 140.74 112.165 140.74 112.165C140.74 112.165 142.24 112.865 143.18 113.46C144.12 114.055 150.115 115.96 150.115 115.96C150.115 115.96 150.515 115.76 150.065 115.41C149.615 115.06 146.725 113.665 146.725 113.665L152.725 114.965C152.725 114.965 153.075 114.715 152.925 114.465C152.775 114.215 147.425 112.17 147.425 112.17L153.425 112.47C153.425 112.47 153.855 111.92 153.56 111.72Z" fill="white" stroke="#263238" stroke-linecap="round" stroke-linejoin="round"/>
<path d="M118.795 104.62C116.64 101.965 112.335 96.6649 111.165 95.2449C110.063 93.9636 108.809 92.8218 107.43 91.8449C105.9 91.1699 105.93 92.2999 105.93 92.2999L109.125 106.5C109.125 106.5 112.855 108.72 115.455 110.18L118.795 104.62Z" fill="white" stroke="#263238" stroke-linecap="round" stroke-linejoin="round"/>
<path d="M96.7001 90.6297C96.7001 90.6297 92.3601 90.8297 89.7001 93.7747C87.0401 96.7197 87.3551 103.2 88.4551 107.09C89.5551 110.98 90.9551 113.125 90.6501 114.475C90.3451 115.825 89.2551 116.27 89.8501 117.515C90.4451 118.76 93.8901 120.11 99.9751 119.91C106.06 119.71 107.21 118.41 107.26 117.27C107.31 116.13 106.86 115.175 107.01 114.475C107.16 113.775 111.55 109.885 111.55 105.595C111.55 101.305 109.655 99.8097 109.205 96.7147C108.755 93.6197 108.905 93.1747 107.06 91.8247C105.215 90.4747 99.1451 89.7797 96.7001 90.6297Z" fill="white" stroke="#263238" stroke-linecap="round" stroke-linejoin="round"/>
<path d="M94.7301 105.5C93.2795 106.714 91.6696 107.723 89.9451 108.5" stroke="#263238" stroke-linecap="round" stroke-linejoin="round"/>
<path d="M95.21 106C95.21 106 94.135 109.47 91.5 111.385" stroke="#263238" stroke-linecap="round" stroke-linejoin="round"/>
<path d="M105.98 93.77L106.48 98.56L104.38 96.115L105.98 93.77Z" fill="white" stroke="#263238" stroke-linecap="round" stroke-linejoin="round"/>
<path d="M103.185 98.9598L105.98 93.7698L103.435 91.0298L103.185 98.9598Z" fill="white" stroke="#263238" stroke-linecap="round" stroke-linejoin="round"/>
<path d="M97.8 82.1499C98.2359 83.8792 98.4526 85.6565 98.445 87.4399C98.4305 88.5947 98.3133 89.7459 98.095 90.8799L103.185 98.9599L104.63 91.4599L105.58 86.2699C105.58 86.2699 99.795 85.9399 97.8 82.1499Z" fill="white" stroke="#263238" stroke-linecap="round" stroke-linejoin="round"/>
<path d="M102.885 94.6196L103.185 98.9596L101.69 96.6146L102.885 94.6196Z" fill="white" stroke="#263238" stroke-linecap="round" stroke-linejoin="round"/>
<path d="M96.4001 90.68L101.04 99.01L102.885 94.62L97.9501 87.835L96.4001 90.68Z" fill="white" stroke="#263238" stroke-linecap="round" stroke-linejoin="round"/>
<path d="M177.69 94.5649H135.585V129.115H177.69V94.5649Z" fill="#FF6B57"/>
<mask id="mask11_1182_4234" style="mask-type:luminance" maskUnits="userSpaceOnUse" x="135" y="94" width="43" height="36">
<path d="M177.69 94.5649H135.585V129.115H177.69V94.5649Z" fill="white"/>
</mask>
<g mask="url(#mask11_1182_4234)">
<path opacity="0.2" d="M177.69 94.5649H135.585V129.115H177.69V94.5649Z" fill="black"/>
</g>
<path d="M177.69 94.5649H135.585V129.115H177.69V94.5649Z" stroke="#263238" stroke-linecap="round" stroke-linejoin="round"/>
<path d="M168.775 94.5649H126.67V129.115H168.775V94.5649Z" fill="#FF6B57" stroke="#263238" stroke-linecap="round" stroke-linejoin="round"/>
<path d="M184.625 140.745C183.275 138.605 177.69 129.115 177.69 129.115H168.78L173.365 140.745H184.625Z" fill="#FF6B57"/>
<mask id="mask12_1182_4234" style="mask-type:luminance" maskUnits="userSpaceOnUse" x="168" y="129" width="17" height="12">
<path d="M184.625 140.745C183.275 138.605 177.69 129.115 177.69 129.115H168.78L173.365 140.745H184.625Z" fill="white"/>
</mask>
<g mask="url(#mask12_1182_4234)">
<path opacity="0.2" d="M184.625 140.745C183.275 138.605 177.69 129.115 177.69 129.115H168.78L173.365 140.745H184.625Z" fill="black"/>
</g>
<path d="M184.625 140.745C183.275 138.605 177.69 129.115 177.69 129.115H168.78L173.365 140.745H184.625Z" stroke="#263238" stroke-linecap="round" stroke-linejoin="round"/>
<path d="M119.71 140.745C121.06 138.605 126.64 129.115 126.64 129.115H135.555L130.97 140.745H119.71Z" fill="#FF6B57" stroke="#263238" stroke-linecap="round" stroke-linejoin="round"/>
<path d="M126.64 129.115L122.765 140.745H166.74L168.78 129.115H126.64Z" fill="#FF6B57" stroke="#263238" stroke-linecap="round" stroke-linejoin="round"/>
<path d="M183.11 107.065V118.635" stroke="#263238" stroke-linecap="round" stroke-linejoin="round"/>
<path d="M185.3 112.07V121.45" stroke="#263238" stroke-linecap="round" stroke-linejoin="round"/>
<path d="M122.145 118.635V125.825" stroke="#263238" stroke-linecap="round" stroke-linejoin="round"/>
<path d="M120.27 122.7V128.325" stroke="#263238" stroke-linecap="round" stroke-linejoin="round"/>
<path d="M89.4651 103.05C90.9572 104.74 92.689 106.202 94.6051 107.39C97.6051 109.185 108.605 115.42 109.47 115.77C110.335 116.12 136.605 111.83 136.605 111.83C136.605 111.83 138.105 112.53 139.05 113.125C139.995 113.72 145.985 115.625 145.985 115.625C145.985 115.625 146.385 115.425 145.935 115.08C145.485 114.735 142.595 113.33 142.595 113.33L148.595 114.63C148.595 114.63 148.945 114.38 148.795 114.13C148.645 113.88 143.295 111.835 143.295 111.835L149.295 112.135C149.295 112.135 149.745 111.585 149.445 111.385C149.145 111.185 143 109.785 143 109.785C143 109.785 149.535 109.235 149.585 108.985C149.635 108.735 149.835 108.44 149.435 108.39C149.035 108.34 140.855 107.54 140.855 107.54C140.855 107.54 143 106.195 143.25 105.795C143.5 105.395 143.85 104.595 143.45 104.595C143.05 104.595 142.95 104.845 142.405 105.195C141.86 105.545 139.71 106.395 139.11 106.89C138.51 107.385 136.715 108.69 136.715 108.69L112.675 108.74L97.7501 96.9648" fill="white"/>
<path d="M89.4651 103.05C90.9572 104.74 92.689 106.202 94.6051 107.39C97.6051 109.185 108.605 115.42 109.47 115.77C110.335 116.12 136.605 111.83 136.605 111.83C136.605 111.83 138.105 112.53 139.05 113.125C139.995 113.72 145.985 115.625 145.985 115.625C145.985 115.625 146.385 115.425 145.935 115.08C145.485 114.735 142.595 113.33 142.595 113.33L148.595 114.63C148.595 114.63 148.945 114.38 148.795 114.13C148.645 113.88 143.295 111.835 143.295 111.835L149.295 112.135C149.295 112.135 149.745 111.585 149.445 111.385C149.145 111.185 143 109.785 143 109.785C143 109.785 149.535 109.235 149.585 108.985C149.635 108.735 149.835 108.44 149.435 108.39C149.035 108.34 140.855 107.54 140.855 107.54C140.855 107.54 143 106.195 143.25 105.795C143.5 105.395 143.85 104.595 143.45 104.595C143.05 104.595 142.95 104.845 142.405 105.195C141.86 105.545 139.71 106.395 139.11 106.89C138.51 107.385 136.715 108.69 136.715 108.69L112.675 108.74L97.7501 96.9648" stroke="#263238" stroke-linecap="round" stroke-linejoin="round"/>
<path d="M149.425 108.39C149.03 108.34 140.845 107.54 140.845 107.54C140.845 107.54 142.99 106.195 143.24 105.795C143.49 105.395 143.84 104.595 143.44 104.595C143.04 104.595 142.94 104.845 142.395 105.195C141.85 105.545 139.7 106.395 139.1 106.89C138.5 107.385 136.705 108.69 136.705 108.69L112.665 108.74L110 106.625C109 108.38 107.13 111.67 105.915 113.84C107.785 114.88 109.2 115.655 109.485 115.77C110.335 116.12 136.62 111.83 136.62 111.83C136.62 111.83 138.12 112.53 139.065 113.125C140.01 113.72 146 115.625 146 115.625C146 115.625 146.4 115.425 145.95 115.08C145.5 114.735 142.61 113.33 142.61 113.33L148.61 114.63C148.61 114.63 148.96 114.38 148.81 114.13C148.66 113.88 143.31 111.835 143.31 111.835L149.31 112.135C149.31 112.135 149.76 111.585 149.46 111.385C149.16 111.185 143 109.785 143 109.785C143 109.785 149.535 109.235 149.585 108.985C149.635 108.735 149.825 108.44 149.425 108.39Z" fill="white" stroke="#263238" stroke-linecap="round" stroke-linejoin="round"/>
<path d="M109.17 77.9597C109.255 77.8562 109.368 77.7788 109.495 77.7362C109.622 77.6937 109.759 77.6877 109.889 77.719C110.019 77.7502 110.138 77.8175 110.232 77.9131C110.326 78.0087 110.391 78.1288 110.42 78.2597C110.504 78.802 110.476 79.3558 110.338 79.887C110.201 80.4183 109.956 80.9159 109.62 81.3497C109.07 81.8997 108.57 82.0497 108.57 81.3497C108.709 80.2097 108.909 79.078 109.17 77.9597Z" fill="white" stroke="#263238" stroke-linecap="round" stroke-linejoin="round"/>
<path d="M103.03 69.2197C102.855 71.653 101.814 73.9431 100.095 75.6747C98.4941 77.249 96.6838 78.595 94.7151 79.6747C94.7151 79.6747 95.0051 81.2397 95.5951 81.7297C96.1851 82.2197 97.3551 82.1247 97.3551 82.1247C98.0353 83.9845 99.1415 85.6592 100.585 87.0147C102.93 89.1647 105.67 88.9697 107.235 85.7447C108.8 82.5197 109.585 79.2847 109.39 77.4247L109.195 75.5647C109.195 75.5647 104.105 72.7397 103.03 69.2197Z" fill="white" stroke="#263238" stroke-linecap="round" stroke-linejoin="round"/>
<path d="M102.735 78.89C102.984 78.89 103.185 78.5319 103.185 78.09C103.185 77.6482 102.984 77.29 102.735 77.29C102.487 77.29 102.285 77.6482 102.285 78.09C102.285 78.5319 102.487 78.89 102.735 78.89Z" fill="#263238"/>
<path d="M105.18 85.2748C105.429 85.2748 105.63 84.9166 105.63 84.4748C105.63 84.033 105.429 83.6748 105.18 83.6748C104.931 83.6748 104.73 84.033 104.73 84.4748C104.73 84.9166 104.931 85.2748 105.18 85.2748Z" fill="#263238"/>
<path d="M107.075 78.89C107.324 78.89 107.525 78.5319 107.525 78.09C107.525 77.6482 107.324 77.29 107.075 77.29C106.826 77.29 106.625 77.6482 106.625 78.09C106.625 78.5319 106.826 78.89 107.075 78.89Z" fill="#263238"/>
<path d="M106.175 77.2397C106.003 77.8387 105.952 78.4659 106.025 79.0847C106.175 79.9347 106.875 81.3797 106.275 81.6297C106.001 81.7546 105.698 81.802 105.4 81.7668C105.101 81.7315 104.817 81.6149 104.58 81.4297" stroke="#263238" stroke-linecap="round" stroke-linejoin="round"/>
<path d="M101.435 76.6448C101.435 76.6448 101.675 75.1148 103.68 75.2898" stroke="#263238" stroke-linecap="round" stroke-linejoin="round"/>
<path d="M106.805 75.7596C106.805 75.7596 108.675 74.2596 109.28 77.0046" stroke="#263238" stroke-linecap="round" stroke-linejoin="round"/>
</svg>
